<svg xmlns="http://www.w3.org/2000/svg" version="1.1" xmlns:xlink="http://www.w3.org/1999/xlink" xmlns:svgjs="http://svgjs.dev/svgjs" width="2000" height="1864" viewBox="0 0 2000 1864"><g transform="matrix(1,0,0,1,1.314157469834413,0.7560494329162566)"><svg viewBox="0 0 265 247" data-background-color="#000000" preserveAspectRatio="xMidYMid meet" height="1864" width="2000" xmlns="http://www.w3.org/2000/svg" xmlns:xlink="http://www.w3.org/1999/xlink"><g id="tight-bounds" transform="matrix(1,0,0,1,-0.17404221219666738,-0.09997365579206985)"><svg viewBox="0 0 265.3480868864469 247.2" height="247.2" width="265.3480868864469"><g><svg viewBox="0 0 265.3480868864469 247.2" height="247.2" width="265.3480868864469"><g><svg viewBox="0 0 265.3480868864469 247.2" height="247.2" width="265.3480868864469"><g id="textblocktransform"><svg viewBox="0 0 265.3480868864469 247.2" height="247.2" width="265.3480868864469" id="textblock"><g><svg viewBox="0 0 265.3480868864469 247.2" height="247.2" width="265.3480868864469"><path d="M264.727 53.02C263.479 27.36 259.924 20.227 259.924 20.227 249.009-6.202 235.387-0.506 223.149 3.292 201.543 3.446 180.024 9.091 158.468 12.119 113.223 12.581 67.591 4.986 22.57 23.717 18.341 29.464-4.387 24.846 0.752 56.304 2.099 69.39 7.014 83.913 6.865 95.922 7.538 98.026 8.474 93.202 8.873 96.23 10.27 104.39 12.553 100.541 14.424 105.365 11.817 118.246 13.688 128.971 15.472 140.21 12.329 143.135 8.299 141.749 6.491 151.449 6.303 158.479 5.293 157.145 4.183 156.837 3.372 156.632 1.738 157.402 2.012 159.608 2.948 167.152-1.069 171.514 1.451 178.904-0.283 186.91 2.648 193.838 2.249 202.511 2.199 204.255 2.474 205.744 2.91 206.154 4.844 208.361 2.025 212.672 2.324 217.342 22.159 249.262 43.677 227.195 63.998 241.872 69.275 231.608 65.308 245.516 67.416 243.36 69.063 240.846 70.261 251.263 72.119 245.362 72.406 243.668 71.97 239.665 72.993 240.435 73.529 240.846 74.003 240.743 74.078 238.382 74.19 234.841 73.205 237.048 72.943 235.201 75.774 225.861 75.076 248.081 77.733 247.158 77.608 244.438 76.835 240.538 78.419 241.051 79.991 237.151 80.041 233.918 81.438 242.693 81.488 244.592 81.737 245.926 82.136 246.85 86.502 237.305 90.844 250.237 95.422 245.926 98.229 241.205 100.923 248.492 103.767 246.696 104.765 245.259 105.776 242.693 106.736 247.004 118.5 247.928 131.037 244.079 142.189 247.158 171.991 241.41 203.838 249.518 235.262 241.923 242.672 238.998 250.369 234.841 257.591 231.506 257.591 231.506 263.442 222.371 263.442 181.316S264.689 145.393 264.877 112.703C265.064 80.013 265.937 78.679 264.689 53.02Z" opacity="1" fill="#ff0000" data-fill-palette-color="tertiary"></path><g transform="matrix(1,0,0,1,55.76832,26.230666666666668)"><svg width="153.81144688644687" viewBox="1.45 -35.75 28.750000000000004 36.4" height="194.73866666666666" data-palette-color="#ffffff"><path d="M19.4-35.75Q24.15-35.75 27.18-33.18 30.2-30.6 30.2-25.45L30.2-25.45Q30.2-21.35 27.45-17.82 24.7-14.3 20.43-12.2 16.15-10.1 11.85-10.1L11.85-10.1Q11.4-10.1 11.3-10.2L11.3-10.2 11.55-11.55Q14.9-11.9 18.1-13.65 21.3-15.4 23.33-18.23 25.35-21.05 25.35-24.5L25.35-24.5Q25.35-28.25 23.08-30.5 20.8-32.75 16.35-32.75L16.35-32.75Q12.9-32.75 9.08-31.13 5.25-29.5 2.4-26.9L2.4-26.9 1.45-27.95Q5.1-31.35 9.98-33.55 14.85-35.75 19.4-35.75L19.4-35.75ZM9.25-28.5L9.25-1.1 4.65 0.65 4.65-26.7 9.25-28.5Z" opacity="1" transform="matrix(1,0,0,1,0,0)" fill="#ffffff" class="wordmark-text-0" data-fill-palette-color="quaternary" id="text-0"></path></svg></g></svg></g></svg></g></svg></g><g></g></svg></g><defs></defs></svg><rect width="265.3480868864469" height="247.2" fill="none" stroke="none" visibility="hidden"></rect></g></svg></g></svg>